<svg width="1019" height="689" viewBox="0 0 1019 689" fill="none" xmlns="http://www.w3.org/2000/svg">
<g clip-path="url(#clip0)">
<path d="M311.62 319.297H180.565V465.84H311.62V319.297Z" fill="#CCCCCC"/>
<path d="M113.847 686.25H47.1284L39.98 629.062H120.996L113.847 686.25Z" fill="#E6E6E6"/>
<path d="M247.821 644.827L245.569 675.607C245.467 677 245.665 678.399 246.148 679.71C246.631 681.021 247.388 682.213 248.37 683.207C249.352 684.201 250.534 684.974 251.839 685.473C253.144 685.972 254.54 686.187 255.934 686.103L271.744 685.145C272.477 685.1 273.191 684.895 273.835 684.544C274.479 684.192 275.038 683.703 275.472 683.111C275.906 682.519 276.204 681.839 276.346 681.119C276.487 680.399 276.468 679.656 276.29 678.944L267.514 643.842L247.821 644.827Z" fill="#E6E6E6"/>
<path d="M380.062 663.028C398.668 667.381 411.96 673.568 420.692 681.941C423.802 684.9 427.87 686.645 432.158 686.856C437.634 687.144 442.112 686.53 445.477 685.027H445.477C446.339 684.647 447.084 684.044 447.634 683.279C448.184 682.514 448.519 681.616 448.605 680.678C448.707 679.725 448.552 678.762 448.156 677.889C447.76 677.016 447.138 676.265 446.355 675.713L402.225 644.314L383.481 651.813L379.108 656.186C378.635 656.659 378.278 657.236 378.065 657.871C377.852 658.506 377.789 659.181 377.882 659.844C377.974 660.507 378.219 661.14 378.597 661.693C378.976 662.245 379.477 662.702 380.062 663.028H380.062Z" fill="#E6E6E6"/>
<path d="M322.8 160.476L196.662 159.308C196.979 140.936 201.253 122.895 210.597 106.75C216.734 96.1476 216.601 84.6085 215.122 74.8871C212.84 59.8849 218.147 44.5354 229.94 34.9855C238.952 27.6746 250.326 23.9112 261.92 24.4042L264.37 24.5062C272.348 24.8378 280.115 27.1683 286.958 31.2839C293.8 35.3994 299.5 41.168 303.532 48.0601C307.63 55.4177 309.283 63.8879 308.251 72.2465C307.452 80.1114 309.365 88.0563 313.84 96.0769C321.56 113.689 323.232 136.226 322.8 160.476Z" fill="#2F2E41"/>
<path d="M407.193 645.952L382.437 652.41L261.886 389.782L269.42 645.952H244.664C218.211 525.431 170.451 386.337 191.923 342.422L320.009 334.888L407.193 645.952Z" fill="#3F3D56"/>
<path d="M260.809 116.39C279.237 116.39 294.176 101.451 294.176 83.0232C294.176 64.5952 279.237 49.6564 260.809 49.6564C242.382 49.6564 227.443 64.5952 227.443 83.0232C227.443 101.451 242.382 116.39 260.809 116.39Z" fill="#FFB9B9"/>
<path d="M289.871 144.375L234.977 141.146C240.357 128.798 242.506 116.908 240.359 105.626H281.26C281.167 114.289 285.478 129.273 289.871 144.375Z" fill="#FFB9B9"/>
<path d="M324.314 344.575L203.764 353.186L216.141 139.531L237.13 133.611L260.809 138.993L284.489 127.153L299.558 132.536L324.314 344.575Z" fill="#3F3D56"/>
<path d="M224.214 498.493L141.873 479.657C166.357 398.464 210.467 212.721 196.229 146.528L239.283 127.153L224.214 498.493Z" fill="#E6E6E6"/>
<path d="M184.389 263.849L153.175 244.475L179.795 166.51C182.764 158.465 188.451 151.71 195.872 147.414L204.839 142.222L199.458 220.795L184.389 263.849Z" fill="#E6E6E6"/>
<path d="M395.891 480.733C369.902 495.769 304.94 504.15 276.417 493.649C274.318 420.291 270.201 212.788 283.413 125.001L330.772 144.375L326.467 202.498C303.825 252.218 369.571 425.396 395.891 480.733Z" fill="#E6E6E6"/>
<path d="M392.124 254.163L363.062 244.475L324.314 200.344L330.772 144.375L395.352 234.788L392.124 254.163Z" fill="#E6E6E6"/>
<path d="M301.046 296.057C301.521 298.144 302.805 299.957 304.615 301.099C306.425 302.24 308.614 302.618 310.702 302.148L335.372 296.561L331.806 280.815L307.137 286.4C305.048 286.874 303.234 288.157 302.092 289.968C300.949 291.778 300.573 293.969 301.046 296.057V296.057Z" fill="#FFB9B9"/>
<path d="M289.871 74.4124C271.338 66.7915 253.033 66.2401 234.977 73.336L227.443 46.4274H296.329L289.871 74.4124Z" fill="#2F2E41"/>
<path d="M323.238 277.842L337.23 303.674C360.765 297.11 381.162 276.416 400.734 252.009L395.353 234.788L361.986 243.399L323.238 277.842Z" fill="#E6E6E6"/>
<path d="M313.012 224.563H308.707C308.707 163.669 296.169 121.233 283.951 121.233L282.875 116.928C293.832 116.928 300.818 134.589 304.748 149.406C310.078 169.492 313.012 196.183 313.012 224.563Z" fill="#3F3D56"/>
<path d="M213.988 209.494H209.683C209.683 153.725 222.307 119.081 240.897 119.081L239.821 123.386C226.962 123.386 213.988 150.011 213.988 209.494Z" fill="#3F3D56"/>
<path d="M310.86 236.402C316.804 236.402 321.623 231.583 321.623 225.639C321.623 219.694 316.804 214.876 310.86 214.876C304.915 214.876 300.096 219.694 300.096 225.639C300.096 231.583 304.915 236.402 310.86 236.402Z" fill="#3F3D56"/>
<path d="M196.767 235.326H192.462C192.462 219.895 201.153 207.341 211.836 207.341V211.646C203.527 211.646 196.767 222.269 196.767 235.326Z" fill="#3F3D56"/>
<path d="M231.21 235.326H226.905C226.905 222.269 220.145 211.646 211.836 211.646V207.341C222.519 207.341 231.21 219.895 231.21 235.326Z" fill="#3F3D56"/>
<path d="M229.057 240.708C231.435 240.708 233.363 238.78 233.363 236.402C233.363 234.025 231.435 232.097 229.057 232.097C226.679 232.097 224.752 234.025 224.752 236.402C224.752 238.78 226.679 240.708 229.057 240.708Z" fill="#3F3D56"/>
<path d="M194.614 240.708C196.992 240.708 198.92 238.78 198.92 236.402C198.92 234.025 196.992 232.097 194.614 232.097C192.236 232.097 190.309 234.025 190.309 236.402C190.309 238.78 192.236 240.708 194.614 240.708Z" fill="#3F3D56"/>
<path d="M140.797 196.812L167.659 201.608L229.057 288.91L196.439 281.235L140.797 196.812Z" fill="#3F3D56"/>
<path d="M136.032 195.743C135.623 195.749 135.223 195.865 134.874 196.079C134.524 196.293 134.239 196.596 134.048 196.958C133.856 197.32 133.765 197.727 133.784 198.136C133.804 198.544 133.933 198.941 134.158 199.283L191.549 286.36C191.869 286.847 192.364 287.192 192.931 287.325L219.634 293.608C220.084 293.714 220.556 293.681 220.987 293.512C221.418 293.344 221.787 293.048 222.046 292.665C222.305 292.282 222.442 291.829 222.437 291.367C222.433 290.904 222.288 290.454 222.022 290.076L159.01 200.48C158.839 200.236 158.621 200.028 158.37 199.868C158.119 199.708 157.838 199.599 157.545 199.547L136.463 195.782C136.321 195.756 136.177 195.743 136.032 195.743V195.743Z" fill="#3F3D56"/>
<path d="M171.833 258.002L173.428 274.069L198.599 271.57C200.729 271.359 202.688 270.31 204.045 268.654C205.402 266.998 206.046 264.87 205.834 262.74C205.623 260.609 204.574 258.65 202.918 257.293C201.262 255.936 199.135 255.292 197.004 255.504L171.833 258.002Z" fill="#FFB9B9"/>
<path d="M149.946 256.141C149.983 261.62 152.183 266.861 156.068 270.725C159.952 274.588 165.206 276.759 170.684 276.765H174.823L177.836 251.656L152.889 242.674L149.946 256.141Z" fill="#E6E6E6"/>
<path d="M1018.12 0H527.265V258.535H1018.12V0Z" fill="#E6E6E6"/>
<path d="M541.561 244.238H1003.83V14.2969H541.561V244.238Z" fill="white"/>
<path d="M741.717 47.6562H577.304V212.07H741.717V47.6562Z" fill="#3F3D56"/>
<path d="M702.401 122.715C705.033 122.715 707.167 120.581 707.167 117.949C707.167 115.317 705.033 113.184 702.401 113.184C699.769 113.184 697.635 115.317 697.635 117.949C697.635 120.581 699.769 122.715 702.401 122.715Z" fill="white"/>
<path d="M684.53 106.035C687.162 106.035 689.296 103.901 689.296 101.269C689.296 98.6375 687.162 96.5038 684.53 96.5038C681.898 96.5038 679.764 98.6375 679.764 101.269C679.764 103.901 681.898 106.035 684.53 106.035Z" fill="white"/>
<path d="M682.147 117.949C680.394 117.949 678.675 118.437 677.182 119.356C675.867 117.379 674.321 115.564 672.577 113.952C672.597 113.698 672.616 113.443 672.616 113.184C672.617 111.313 672.068 109.484 671.037 107.924C670.006 106.364 668.538 105.142 666.817 104.411C665.096 103.68 663.197 103.471 661.358 103.811C659.52 104.152 657.822 105.026 656.476 106.325C653.924 105.963 651.335 105.94 648.777 106.258C648.778 106.183 648.788 106.11 648.788 106.035C648.79 104.44 648.391 102.869 647.629 101.468C646.866 100.067 645.764 98.8791 644.424 98.0142C643.083 97.1493 641.547 96.6347 639.956 96.5177C638.365 96.4006 636.77 96.6847 635.317 97.3441C633.865 98.0034 632.601 99.0169 631.641 100.292C630.682 101.566 630.058 103.061 629.826 104.64C629.595 106.218 629.763 107.83 630.316 109.326C630.869 110.823 631.788 112.156 632.991 113.205C631.395 114.572 629.948 116.103 628.672 117.773C627.496 116.794 626.101 116.112 624.606 115.786C623.11 115.46 621.558 115.5 620.081 115.9C618.604 116.301 617.245 117.051 616.119 118.088C614.994 119.125 614.134 120.418 613.614 121.857C613.093 123.297 612.927 124.84 613.129 126.357C613.331 127.874 613.896 129.32 614.775 130.573C615.654 131.826 616.822 132.849 618.18 133.555C619.538 134.261 621.046 134.629 622.577 134.629L622.607 134.627C622.591 135.024 622.577 135.42 622.577 135.82C622.577 138.218 622.867 140.608 623.439 142.937C620.606 144.002 618.091 145.771 616.129 148.075C614.167 150.379 612.822 153.144 612.222 156.111C611.621 159.077 611.784 162.148 612.695 165.034C613.606 167.92 615.236 170.527 617.431 172.611C619.626 174.695 622.314 176.187 625.244 176.947C628.173 177.707 631.248 177.71 634.179 176.957C637.11 176.203 639.802 174.717 642.001 172.638C644.201 170.559 645.836 167.955 646.753 165.071C653.383 166.345 660.249 165.326 666.224 162.182C666.834 163.619 667.787 164.883 669 165.865C670.213 166.847 671.648 167.516 673.18 167.813C674.712 168.111 676.293 168.028 677.785 167.572C679.277 167.115 680.635 166.3 681.738 165.196C682.841 164.093 683.657 162.736 684.113 161.243C684.57 159.751 684.653 158.17 684.355 156.638C684.057 155.106 683.388 153.671 682.407 152.458C681.425 151.245 680.16 150.292 678.724 149.682C680.788 145.765 681.948 141.435 682.117 137.01L682.147 137.012C684.675 137.012 687.099 136.008 688.887 134.22C690.674 132.433 691.678 130.008 691.678 127.48C691.678 124.953 690.674 122.528 688.887 120.741C687.099 118.953 684.675 117.949 682.147 117.949V117.949Z" fill="white"/>
<path d="M679.764 44.082H632.108V51.2304H679.764V44.082Z" fill="#E6E6E6"/>
<path d="M951.405 47.6562H786.991V212.07H951.405V47.6562Z" fill="#3F3D56"/>
<path d="M900.413 159.172C901.597 159.172 902.557 158.212 902.557 157.027C902.557 155.843 901.597 154.883 900.413 154.883C899.228 154.883 898.268 155.843 898.268 157.027C898.268 158.212 899.228 159.172 900.413 159.172Z" fill="#3F3D56"/>
<path d="M892.371 151.666C893.555 151.666 894.515 150.706 894.515 149.521C894.515 148.337 893.555 147.377 892.371 147.377C891.186 147.377 890.226 148.337 890.226 149.521C890.226 150.706 891.186 151.666 892.371 151.666Z" fill="#3F3D56"/>
<path d="M891.298 157.027C890.509 157.027 889.736 157.247 889.064 157.66C888.472 156.771 887.777 155.954 886.992 155.229C887.001 155.114 887.009 155 887.009 154.883C887.01 154.041 886.763 153.218 886.299 152.516C885.835 151.814 885.174 151.264 884.4 150.935C883.625 150.606 882.771 150.512 881.944 150.665C881.116 150.818 880.352 151.212 879.747 151.796C878.598 151.633 877.433 151.623 876.282 151.766C876.282 151.732 876.287 151.7 876.287 151.666C876.288 150.948 876.108 150.241 875.765 149.611C875.422 148.98 874.926 148.446 874.323 148.057C873.72 147.667 873.028 147.436 872.312 147.383C871.596 147.33 870.879 147.458 870.225 147.755C869.571 148.052 869.003 148.508 868.571 149.081C868.139 149.655 867.858 150.328 867.754 151.038C867.65 151.748 867.726 152.473 867.974 153.147C868.223 153.82 868.637 154.421 869.178 154.892C868.46 155.508 867.809 156.196 867.235 156.948C866.705 156.507 866.078 156.201 865.405 156.054C864.732 155.907 864.033 155.925 863.369 156.105C862.704 156.286 862.093 156.623 861.586 157.09C861.079 157.557 860.693 158.138 860.458 158.786C860.224 159.434 860.149 160.128 860.24 160.811C860.331 161.494 860.585 162.144 860.981 162.708C861.377 163.272 861.902 163.732 862.513 164.05C863.124 164.367 863.803 164.533 864.492 164.533L864.505 164.532C864.498 164.711 864.492 164.889 864.492 165.069C864.492 166.148 864.622 167.224 864.88 168.272C863.605 168.751 862.473 169.547 861.59 170.584C860.707 171.621 860.102 172.865 859.832 174.2C859.562 175.535 859.635 176.917 860.045 178.215C860.455 179.514 861.188 180.687 862.176 181.625C863.164 182.563 864.374 183.234 865.692 183.576C867.01 183.918 868.394 183.92 869.713 183.581C871.032 183.241 872.243 182.573 873.233 181.637C874.223 180.702 874.958 179.53 875.371 178.232C878.355 178.805 881.444 178.347 884.133 176.932C884.407 177.579 884.836 178.148 885.382 178.589C885.928 179.031 886.574 179.332 887.263 179.466C887.952 179.6 888.664 179.563 889.336 179.357C890.007 179.152 890.618 178.785 891.114 178.288C891.611 177.792 891.978 177.181 892.183 176.51C892.389 175.838 892.426 175.127 892.292 174.437C892.158 173.748 891.857 173.102 891.415 172.556C890.973 172.011 890.404 171.582 889.758 171.307C890.687 169.544 891.209 167.596 891.285 165.605L891.298 165.605C892.436 165.605 893.527 165.154 894.331 164.349C895.136 163.545 895.588 162.454 895.588 161.316C895.588 160.179 895.136 159.088 894.331 158.284C893.527 157.479 892.436 157.027 891.298 157.027V157.027Z" fill="white"/>
<path d="M917.238 118.475C918.422 118.475 919.382 117.515 919.382 116.331C919.382 115.146 918.422 114.186 917.238 114.186C916.053 114.186 915.093 115.146 915.093 116.331C915.093 117.515 916.053 118.475 917.238 118.475Z" fill="#3F3D56"/>
<path d="M922.282 108.7C923.467 108.7 924.427 107.74 924.427 106.555C924.427 105.371 923.467 104.411 922.282 104.411C921.098 104.411 920.138 105.371 920.138 106.555C920.138 107.74 921.098 108.7 922.282 108.7Z" fill="#3F3D56"/>
<path d="M914.767 107.558C914.553 106.798 914.132 106.113 913.552 105.579C914.248 104.768 914.845 103.877 915.331 102.925C915.443 102.903 915.556 102.88 915.668 102.848C916.479 102.621 917.204 102.16 917.754 101.523C918.304 100.886 918.654 100.101 918.761 99.266C918.868 98.4313 918.727 97.5836 918.355 96.8286C917.983 96.0736 917.397 95.4448 916.671 95.0205C916.516 93.8707 916.21 92.7465 915.76 91.6772C915.793 91.6688 915.826 91.6641 915.858 91.6549C916.549 91.4612 917.181 91.097 917.695 90.5958C918.209 90.0946 918.589 89.4724 918.8 88.7863C919.011 88.1001 919.047 87.3719 918.903 86.6685C918.76 85.965 918.442 85.3088 917.98 84.76C917.517 84.2112 916.924 83.7873 916.254 83.5273C915.585 83.2672 914.862 83.1792 914.15 83.2715C913.438 83.3637 912.76 83.6332 912.179 84.0552C911.599 84.4772 911.133 85.0383 910.825 85.6869C910.039 85.1625 909.199 84.7223 908.32 84.3736C908.601 83.7446 908.726 83.0573 908.685 82.3698C908.643 81.6823 908.437 81.0149 908.083 80.4239C907.73 79.833 907.239 79.3359 906.652 78.9748C906.066 78.6137 905.401 78.3991 904.714 78.3492C904.027 78.2993 903.338 78.4156 902.706 78.6883C902.073 78.9609 901.516 79.3819 901.08 79.9155C900.645 80.4492 900.345 81.0798 900.204 81.7542C900.064 82.4285 900.089 83.1266 900.275 83.7896L900.28 83.8025C900.106 83.844 899.933 83.8861 899.759 83.9349C898.721 84.2276 897.721 84.6444 896.782 85.1764C895.975 84.0794 894.902 83.2055 893.665 82.6368C892.427 82.068 891.066 81.8229 889.707 81.9246C888.349 82.0263 887.039 82.4714 885.9 83.2182C884.761 83.9649 883.831 84.9888 883.196 86.1937C882.561 87.3986 882.242 88.7451 882.271 90.1068C882.299 91.4684 882.672 92.8006 883.356 93.9784C884.04 95.1561 885.012 96.1406 886.181 96.8397C887.35 97.5388 888.677 97.9295 890.039 97.975C890.295 101.002 891.574 103.852 893.665 106.056C893.117 106.496 892.686 107.063 892.408 107.708C892.131 108.353 892.016 109.056 892.074 109.756C892.132 110.456 892.361 111.131 892.741 111.722C893.12 112.312 893.639 112.801 894.252 113.144C894.864 113.487 895.552 113.675 896.254 113.691C896.956 113.706 897.651 113.549 898.278 113.234C898.905 112.918 899.445 112.453 899.851 111.88C900.256 111.307 900.515 110.643 900.604 109.946C902.553 110.362 904.57 110.336 906.507 109.87L906.51 109.883C906.662 110.426 906.92 110.933 907.268 111.376C907.617 111.819 908.049 112.188 908.541 112.464C909.032 112.74 909.573 112.916 910.133 112.983C910.692 113.049 911.26 113.005 911.802 112.852C912.344 112.699 912.851 112.441 913.294 112.092C913.737 111.744 914.106 111.311 914.381 110.819C914.657 110.328 914.833 109.787 914.899 109.227C914.965 108.667 914.92 108.1 914.767 107.558V107.558Z" fill="white"/>
<path d="M834.177 89.3334C835.361 89.3334 836.321 88.3732 836.321 87.1888C836.321 86.0044 835.361 85.0443 834.177 85.0443C832.992 85.0443 832.032 86.0044 832.032 87.1888C832.032 88.3732 832.992 89.3334 834.177 89.3334Z" fill="#3F3D56"/>
<path d="M823.211 90.2119C824.396 90.2119 825.356 89.2518 825.356 88.0674C825.356 86.883 824.396 85.9229 823.211 85.9229C822.027 85.9229 821.067 86.883 821.067 88.0674C821.067 89.2518 822.027 90.2119 823.211 90.2119Z" fill="#3F3D56"/>
<path d="M828.032 93.9199C827.5 94.5028 827.14 95.2218 826.993 95.997C825.936 95.8341 824.865 95.7973 823.8 95.8877C823.721 95.8038 823.642 95.7203 823.556 95.6416C822.935 95.0737 822.16 94.7013 821.329 94.5707C820.498 94.4401 819.646 94.5571 818.881 94.9072C818.116 95.2573 817.471 95.8249 817.026 96.5393C816.581 97.2537 816.356 98.0832 816.38 98.9244C815.485 99.6627 814.692 100.516 814.021 101.463C813.997 101.44 813.976 101.414 813.951 101.392C813.421 100.907 812.778 100.563 812.081 100.391C811.384 100.219 810.655 100.225 809.961 100.408C809.267 100.591 808.63 100.946 808.108 101.439C807.587 101.932 807.197 102.549 806.975 103.231C806.754 103.914 806.707 104.642 806.84 105.347C806.972 106.053 807.28 106.714 807.734 107.27C808.188 107.826 808.775 108.259 809.44 108.529C810.105 108.799 810.827 108.898 811.541 108.817C811.511 109.762 811.58 110.707 811.748 111.638C811.066 111.732 810.417 111.989 809.855 112.387C809.293 112.785 808.835 113.312 808.52 113.925C808.205 114.537 808.042 115.217 808.045 115.905C808.048 116.594 808.217 117.272 808.537 117.882C808.858 118.491 809.32 119.015 809.886 119.408C810.451 119.801 811.103 120.052 811.786 120.14C812.469 120.228 813.163 120.15 813.81 119.913C814.457 119.676 815.037 119.287 815.501 118.778L815.51 118.767C815.637 118.893 815.764 119.018 815.897 119.139C816.694 119.867 817.576 120.496 818.524 121.012C818.018 122.277 817.843 123.649 818.013 125C818.184 126.352 818.695 127.637 819.498 128.737C820.302 129.837 821.372 130.714 822.607 131.287C823.843 131.86 825.204 132.109 826.562 132.012C827.921 131.915 829.232 131.474 830.374 130.731C831.515 129.988 832.449 128.967 833.088 127.764C833.727 126.562 834.05 125.216 834.026 123.854C834.003 122.493 833.633 121.159 832.953 119.979C835.388 118.163 837.133 115.572 837.901 112.632C838.563 112.865 839.273 112.932 839.967 112.827C840.661 112.722 841.319 112.448 841.883 112.029C842.446 111.61 842.898 111.059 843.199 110.425C843.501 109.791 843.641 109.092 843.609 108.391C843.577 107.689 843.374 107.006 843.016 106.402C842.659 105.798 842.159 105.29 841.559 104.924C840.96 104.559 840.28 104.346 839.579 104.304C838.878 104.262 838.178 104.393 837.539 104.685C836.863 102.811 835.776 101.112 834.357 99.7131L834.367 99.7036C834.747 99.2877 835.042 98.801 835.235 98.2711C835.427 97.7411 835.513 97.1785 835.488 96.6153C835.463 96.0521 835.327 95.4994 835.088 94.9888C834.849 94.4783 834.512 94.0198 834.095 93.6397C833.679 93.2596 833.192 92.9653 832.661 92.7736C832.131 92.582 831.568 92.4967 831.005 92.5228C830.442 92.5488 829.89 92.6856 829.379 92.9253C828.869 93.1651 828.411 93.503 828.032 93.9199V93.9199Z" fill="white"/>
<path d="M889.452 44.082H841.796V51.2304H889.452V44.082Z" fill="#E6E6E6"/>
<path d="M29.9953 607.906C47.175 630.914 82.8366 633.335 82.8366 633.335C82.8366 633.335 90.6445 598.455 73.4648 575.447C56.2852 552.44 20.6236 550.019 20.6236 550.019C20.6236 550.019 12.8157 584.899 29.9953 607.906Z" fill="#E6E6E6"/>
<path d="M117.512 616.556C106.176 631.737 82.6437 633.335 82.6437 633.335C82.6437 633.335 77.4915 610.319 88.8279 595.137C100.164 579.955 123.696 578.357 123.696 578.357C123.696 578.357 128.848 601.374 117.512 616.556Z" fill="#E6E6E6"/>
<path d="M619.003 685.84H0V688.51H619.003V685.84Z" fill="#3F3D56"/>
</g>
<defs>
<clipPath id="clip0">
<rect width="1018.12" height="688.51" fill="white"/>
</clipPath>
</defs>
</svg>
