<svg width="533" height="689" viewBox="0 0 533 689" fill="none" xmlns="http://www.w3.org/2000/svg">
<g clip-path="url(#clip0)">
<path d="M209.56 69.32C231.475 69.32 249.24 55.4632 249.24 38.37C249.24 21.2768 231.475 7.42001 209.56 7.42001C187.645 7.42001 169.88 21.2768 169.88 38.37C169.88 55.4632 187.645 69.32 209.56 69.32Z" fill="#3F3D56"/>
<path d="M288.92 200.26C320.478 200.26 346.06 174.678 346.06 143.12C346.06 111.562 320.478 85.98 288.92 85.98C257.362 85.98 231.78 111.562 231.78 143.12C231.78 174.678 257.362 200.26 288.92 200.26Z" fill="#3F3D56"/>
<path d="M470.25 664.12C478.137 664.12 484.53 657.727 484.53 649.84C484.53 641.953 478.137 635.56 470.25 635.56C462.363 635.56 455.97 641.953 455.97 649.84C455.97 657.727 462.363 664.12 470.25 664.12Z" fill="#3F3D56"/>
<path d="M395.66 664.12C403.547 664.12 409.94 657.727 409.94 649.84C409.94 641.953 403.547 635.56 395.66 635.56C387.773 635.56 381.38 641.953 381.38 649.84C381.38 657.727 387.773 664.12 395.66 664.12Z" fill="#3F3D56"/>
<path d="M417.88 305.42H411.53V480.81H417.88V305.42Z" fill="#3F3D56"/>
<path d="M452 305.42H445.65V480.81H452V305.42Z" fill="#3F3D56"/>
<path d="M413.08 310.18L411.49 305.42C411.49 305.42 428.95 284.79 453.55 301.42L451.96 308.57H445.61C445.61 308.57 435.3 299.92 417.84 309.8L413.08 310.18Z" fill="#3F3D56"/>
<path d="M306.38 280.42H249.24V353.43H306.38V280.42Z" fill="#FBBEBE"/>
<path d="M346.06 259.78H328.6V294.7H346.06V259.78Z" fill="#FBBEBE"/>
<path d="M256.78 635.56L249.64 656.99C249.64 656.99 246.46 672.86 256.78 673.65C267.1 674.44 283.78 671.27 283.78 671.27C283.78 671.27 286.16 664.13 283.78 657.78C281.4 651.43 274.26 633.97 274.26 633.97L256.78 635.56Z" fill="#3C354C"/>
<path d="M310.74 636.35C310.74 636.35 299.63 664.13 308.36 668.89C317.09 673.65 329 669.68 338.52 673.65C348.04 677.62 374.23 668.1 374.23 668.1C374.23 668.1 377.41 659.37 359.95 656.99C359.95 656.99 340.95 642.7 340.95 639.53C340.95 636.36 329.84 636.35 329.84 636.35H310.74Z" fill="#3C354C"/>
<path d="M308.36 319.71C308.36 319.71 243.29 333.2 235.36 329.23C227.43 325.26 219.49 383.23 219.49 383.23C219.49 383.23 216.31 418.15 227.42 464.97C238.53 511.79 227.42 534.81 227.42 534.81C227.42 534.81 229.01 579.25 240.92 599.89C252.83 620.53 252.82 639.57 252.82 639.57C252.82 639.57 275.82 641.95 276.63 636.39C276.63 636.39 267.1 614.17 268.69 593.54C270.28 572.91 263.93 533.22 263.93 533.22C263.93 533.22 274.25 483.22 272.66 464.22C271.07 445.22 278.22 404.7 282.18 411.84C286.14 418.98 296.47 453.9 296.47 461.05C296.47 468.2 300.47 515.8 302.82 518.98C305.17 522.16 304.4 531.68 303.61 536.44C302.82 541.2 302.82 576.91 306.78 595.96C310.74 615.01 307.58 636.43 308.37 639.61C309.16 642.79 332.18 640.4 332.97 634.84C332.97 634.84 336.15 600.72 337.74 595.96C339.33 591.2 340.08 530.8 340.08 530.8C340.08 530.8 341.66 483.98 343.25 479.22C344.84 474.46 347.25 372.08 336.9 360.22C326.55 348.36 330.55 318.16 330.55 318.16L308.36 319.71Z" fill="#3F3D56"/>
<path d="M254.87 181.46C251.93 187 248.97 192.59 247.13 198.6C245.29 204.61 244.65 211.12 246.38 217.16C247.618 220.933 249.339 224.529 251.5 227.86C253.219 231.043 255.399 233.955 257.97 236.5C263.97 241.98 272.69 243.08 280.79 243.94C282.179 244.172 283.599 244.148 284.98 243.87C286.088 243.548 287.111 242.989 287.98 242.23C291.53 239.23 293.14 234.65 294.44 230.23C297.532 219.718 299.746 208.968 301.06 198.09C301.365 196.37 301.365 194.61 301.06 192.89C300.36 189.89 297.96 187.56 296.22 184.98C294.136 181.897 292.945 178.298 292.78 174.58C292.71 172.77 292.78 170.77 291.64 169.39C290.882 168.639 289.962 168.071 288.95 167.73C284.22 165.73 279.5 163.73 274.76 161.81C271.9 160.63 266.76 157.49 263.76 159.81C261.19 161.81 262.43 166.45 261.33 169.23C259.64 173.45 256.99 177.46 254.87 181.46Z" fill="#FBBEBE"/>
<path opacity="0.1" d="M254.87 181.46C251.93 187 248.97 192.59 247.13 198.6C245.29 204.61 244.65 211.12 246.38 217.16C247.618 220.933 249.339 224.529 251.5 227.86C253.219 231.043 255.399 233.955 257.97 236.5C263.97 241.98 272.69 243.08 280.79 243.94C282.179 244.172 283.599 244.148 284.98 243.87C286.088 243.548 287.111 242.989 287.98 242.23C291.53 239.23 293.14 234.65 294.44 230.23C297.532 219.718 299.746 208.968 301.06 198.09C301.365 196.37 301.365 194.61 301.06 192.89C300.36 189.89 297.96 187.56 296.22 184.98C294.136 181.897 292.945 178.298 292.78 174.58C292.71 172.77 292.78 170.77 291.64 169.39C290.882 168.639 289.962 168.071 288.95 167.73C284.22 165.73 279.5 163.73 274.76 161.81C271.9 160.63 266.76 157.49 263.76 159.81C261.19 161.81 262.43 166.45 261.33 169.23C259.64 173.45 256.99 177.46 254.87 181.46Z" fill="black"/>
<path d="M286.14 183.21C301.482 183.21 313.92 170.772 313.92 155.43C313.92 140.088 301.482 127.65 286.14 127.65C270.798 127.65 258.36 140.088 258.36 155.43C258.36 170.772 270.798 183.21 286.14 183.21Z" fill="#FBBEBE"/>
<path d="M295.89 225.49C290.63 227.38 285.2 229.01 279.61 229.21C275.422 229.252 271.244 228.806 267.16 227.88C258.721 226.202 250.434 223.837 242.38 220.81C240.66 224.2 240.2 228.07 240.05 231.87C239.62 243.36 241.91 254.76 242.79 266.23C243.9 280.81 242.79 295.71 246.54 309.83C246.757 307.43 247.69 305.152 249.22 303.29C250.495 301.916 252.018 300.797 253.71 299.99C261.278 296.078 269.994 294.993 278.29 296.93C283.1 298.07 288.21 300.2 292.77 298.29C295.49 297.14 297.46 294.72 298.97 292.18C301.534 287.597 303.363 282.64 304.39 277.49C307.39 264.25 307.79 250.56 308.15 236.98C308.25 233.35 309.81 222.56 306.8 219.9C304.69 218.05 304.07 220.69 302.55 222.07C300.573 223.631 298.311 224.793 295.89 225.49Z" fill="#F2F2F2"/>
<path d="M256.79 177.8C254.94 176.35 252.2 176.8 250.16 178.03C248.12 179.26 246.47 180.96 244.4 182.08C238.66 185.19 230.95 182.91 225.5 186.53C220.38 189.94 219.5 196.96 219.1 203.1C218.1 218.7 217.24 234.41 213.49 249.59C212.49 253.59 211.29 257.69 211.67 261.81C211.969 264.164 212.526 266.478 213.33 268.71L218.25 284.08C220.53 291.22 222.84 298.47 223.08 305.96C223.32 313.45 221.56 320.57 219.81 327.72C216.351 341.806 214.1 356.161 213.08 370.63C212.77 375.42 212.64 380.42 214.58 384.81C216.58 389.4 220.64 392.81 224.92 395.4C229.2 397.99 233.85 399.99 238.04 402.74C246.45 408.27 253.2 416.98 263.04 419.25C267.55 420.25 272.27 419.85 276.81 418.97C276.81 418.97 274.24 302.25 267.09 285.58C259.94 268.91 253.6 196.7 253.6 194.32C253.6 191.94 256.79 177.8 256.79 177.8Z" fill="#1C2237"/>
<path d="M295.41 181.62C295.41 181.62 332.96 181.62 338.52 201.46C344.08 221.3 322.65 253.84 322.65 253.84C322.65 253.84 331.38 318.12 335.34 324.47C339.3 330.82 337.73 343.47 337.73 343.47C340.605 352.178 341.15 361.486 339.31 370.47C336.14 384.75 324.23 410.15 324.23 410.15C324.23 410.15 308.36 410.15 304.39 419.67C300.42 429.19 299.63 378.4 299.63 378.4C299.63 378.4 285.35 285.55 286.14 280C286.93 274.45 290.9 228.41 292.49 215.71C294.08 203.01 297.54 186.38 295.41 181.62Z" fill="#1C2237"/>
<path d="M324.23 194.32C324.23 194.32 342.49 199.87 342.49 206.22C342.49 212.57 348.08 246.69 348.08 257.8C348.08 268.91 345.7 270.5 348.08 274.47C350.46 278.44 322.69 276.85 322.69 276.85L317.64 231.62L324.23 194.32Z" fill="#1C2237"/>
<path d="M216.3 251.46C216.3 251.46 252.02 253.84 258.37 249.07C264.72 244.3 291.7 255.42 294.08 261.77C296.46 268.12 255.98 268.91 249.64 268.91C243.3 268.91 213.13 278.44 213.13 278.44L216.3 251.46Z" fill="#A0616A"/>
<path d="M142.77 621.13C142.77 621.13 126.12 663.13 134.77 668.13C143.42 673.13 234.63 669.57 234.63 669.57C234.63 669.57 249.82 660.17 232.46 653.65C232.46 653.65 217.98 652.93 208.58 647.14C199.18 641.35 188.31 630.5 188.31 630.5C188.31 630.5 187.59 614.58 181.8 618.2C180.068 619.341 178.594 620.831 177.473 622.576C176.352 624.321 175.608 626.281 175.29 628.33L142.77 621.13Z" fill="#3F3D56"/>
<path opacity="0.1" d="M142.77 621.13C142.77 621.13 126.12 663.13 134.77 668.13C143.42 673.13 234.63 669.57 234.63 669.57C234.63 669.57 249.82 660.17 232.46 653.65C232.46 653.65 217.98 652.93 208.58 647.14C199.18 641.35 188.31 630.5 188.31 630.5C188.31 630.5 187.59 614.58 181.8 618.2C180.068 619.341 178.594 620.831 177.473 622.576C176.352 624.321 175.608 626.281 175.29 628.33L142.77 621.13Z" fill="black"/>
<path d="M117.08 633.97C117.08 633.97 98.83 679.97 108.35 685.55C117.87 691.13 217.87 687.14 217.87 687.14C217.87 687.14 234.54 676.83 215.49 669.68C215.49 669.68 199.62 668.89 189.3 662.54C178.98 656.19 167.08 644.26 167.08 644.26C167.08 644.26 166.29 626.8 159.94 630.77C158.04 632.02 156.423 633.655 155.193 635.568C153.963 637.482 153.148 639.632 152.8 641.88L117.08 633.97Z" fill="#3F3D56"/>
<path d="M210.75 341.93L199.64 441.93C199.64 441.93 195.64 489.55 183.77 499.86C183.77 499.86 183.77 514.94 179.77 519.7L174.21 582.4C174.21 582.4 182.15 605.4 181.36 609.4C180.57 613.4 184.53 626.06 183.74 627.65C182.95 629.24 145.64 627.65 145.64 627.65L153.58 499.88L178.18 322.12L210.75 341.93Z" fill="#3C354C"/>
<path opacity="0.1" d="M210.75 341.93L199.64 441.93C199.64 441.93 195.64 489.55 183.77 499.86C183.77 499.86 183.77 514.94 179.77 519.7L174.21 582.4C174.21 582.4 182.15 605.4 181.36 609.4C180.57 613.4 184.53 626.06 183.74 627.65C182.95 629.24 145.64 627.65 145.64 627.65L153.58 499.88L178.18 322.12L210.75 341.93Z" fill="black"/>
<path d="M190.91 338.75C190.91 338.75 182.18 420.49 178.21 437.95C175.714 449.448 174.123 461.124 173.45 472.87C173.45 472.87 172.66 498.27 165.51 505.41C163.424 507.477 161.784 509.95 160.694 512.676C159.603 515.403 159.084 518.325 159.17 521.26C159.17 521.26 152.02 601.41 155.99 610.94C159.96 620.47 163.93 628.4 159.99 634.74C156.05 641.08 112.37 641.09 112.37 636.33C112.37 631.57 112.37 627.6 109.99 625.22C107.61 622.84 109.99 607.76 109.99 607.76C109.99 607.76 100.47 537.13 109.2 516.5C117.93 495.87 121.9 439.5 121.9 439.5C121.9 439.5 115.55 375.22 107.61 364.9C99.67 354.58 109.2 318.08 109.2 318.08L190.91 338.75Z" fill="#3C354C"/>
<path d="M168.57 84.91C169.49 87.01 171.7 88.18 173.71 89.29C185.36 95.71 195.11 105.02 204.71 114.22C202.314 106.091 202.827 97.3815 206.16 89.59C207.3 86.94 208.81 84.08 207.99 81.31C207.38 79.31 205.65 77.79 203.99 76.49C200.07 73.4585 195.973 70.6635 191.72 68.12C188.72 66.34 182.64 61.61 179.23 62.12C179.05 66.73 178.96 70.85 176.94 75.12C176.44 76.18 168.92 85.71 168.57 84.91Z" fill="#A0616A"/>
<path d="M209.16 95.11C227.131 95.11 241.7 80.5413 241.7 62.57C241.7 44.5987 227.131 30.03 209.16 30.03C191.189 30.03 176.62 44.5987 176.62 62.57C176.62 80.5413 191.189 95.11 209.16 95.11Z" fill="#A0616A"/>
<path d="M210.75 139.56C210.75 139.56 216.3 111.78 200.43 102.26C184.56 92.74 166.31 81.63 166.31 81.63C166.31 81.63 160.75 80.83 158.37 92.74C158.37 92.74 113.14 101.47 108.37 144.32C103.6 187.17 111.55 249.87 111.55 249.87C111.55 249.87 104.41 304.63 95.68 333.99C95.68 333.99 88.53 340.34 120.28 330.82C152.03 321.3 207.57 357.82 207.57 357.82C207.57 357.82 213.13 352.26 213.13 348.29C213.13 344.32 219.48 321.29 219.48 321.29C219.48 321.29 225.03 223.68 227.41 212.57C229.79 201.46 217.89 141.15 210.75 139.56Z" fill="#3F3D56"/>
<path d="M161.55 194.32C161.55 194.32 205.19 168.92 196.46 136.38C187.73 103.84 168.69 93.53 168.69 93.53C168.69 93.53 137.74 83.21 111.55 116.53L113.14 131.61C113.14 131.61 141.71 73.68 172.66 110.18C203.61 146.68 161.55 194.32 161.55 194.32Z" fill="#1C2237"/>
<path d="M114.72 118.13V248.26L106.61 292.65L102.82 313.34H75.08L36.2 299.05V203.05C36.2 203.05 68.73 138.76 79.05 126.86C89.37 114.96 114.72 118.13 114.72 118.13Z" fill="#1C2237"/>
<path opacity="0.1" d="M106.6 292.66L102.82 313.35H75.04L36.16 299.07L106.6 292.66Z" fill="black"/>
<path d="M105.2 264.94L173.45 181.61L113.13 268.12L106.78 269.7L105.2 264.94Z" fill="#1C2237"/>
<path d="M201.49 65.93C203.34 64.68 205.66 64.45 207.88 64.23C210.1 64.01 212.42 63.71 214.19 62.35C217.26 59.99 217.49 55.43 219.74 52.28C222.99 47.71 229.48 47.16 235.09 47.38C238.52 47.52 242.21 47.73 245.09 45.88C247.97 44.03 249.39 40.38 250.39 37.01C251.58 33.01 252.34 28.13 249.39 25.17C247.39 23.11 244.15 22.7 241.89 20.89C239.63 19.08 238.58 15.97 237.31 13.26C235.86 9.94948 233.567 7.07722 230.66 4.93C226.4 1.93 220.96 1.31 215.77 1.36C210.58 1.41 205.37 2.1 200.22 1.46C196 0.939999 191.79 -0.459996 187.59 0.160004C182.23 0.950004 177.8 5 175.15 9.73C172.5 14.46 171.38 19.86 170.28 25.16L167.28 39.59C166.36 44.07 165.43 48.66 166.14 53.17C167.62 62.53 175.9 69.97 176.47 79.42C177.014 76.8092 178.198 74.3745 179.916 72.3342C181.633 70.2938 183.83 68.7118 186.31 67.73C186.93 67.427 187.634 67.339 188.31 67.48C189.13 67.75 189.61 68.57 190.13 69.26C191.49 71.07 195.76 73.81 198.13 72.53C200.39 71.38 198.77 67.78 201.49 65.93Z" fill="#3F3D56"/>
<path d="M409.15 469.7C409.15 469.7 387.72 470.49 384.55 495.09C381.38 519.69 384.55 633.97 384.55 633.97C384.55 633.97 409.15 652.22 439.31 649.84C469.47 647.46 517.87 638.73 517.87 638.73V504.73C517.87 484.73 501.19 468.42 481.21 469.57C480.74 469.57 480.21 469.63 479.78 469.68L409.15 469.7Z" fill="#3C354C"/>
<path d="M440.1 668.09C447.987 668.09 454.38 661.697 454.38 653.81C454.38 645.923 447.987 639.53 440.1 639.53C432.213 639.53 425.82 645.923 425.82 653.81C425.82 661.697 432.213 668.09 440.1 668.09Z" fill="#3F3D56"/>
<path d="M517.87 661.74C525.757 661.74 532.15 655.347 532.15 647.46C532.15 639.573 525.757 633.18 517.87 633.18C509.983 633.18 503.59 639.573 503.59 647.46C503.59 655.347 509.983 661.74 517.87 661.74Z" fill="#3F3D56"/>
<path d="M119.49 214.16C119.49 214.16 113.93 249.07 136.94 245.9C136.94 245.9 148.85 244.31 150.44 245.9C152.03 247.49 210.75 237.17 218.69 228.44C218.69 228.44 228.21 225.27 232.97 230.03C237.73 234.79 285.35 239.55 271.08 225.26C256.81 210.97 234.58 207.8 234.58 207.8L204.42 209.38C204.42 209.38 188.55 214.15 179.03 209.38C169.51 204.61 142.5 206.26 142.5 206.26L119.49 214.16Z" fill="#A0616A"/>
<path d="M152.02 103.85C152.02 103.85 116.31 107.85 116.31 159.4V225.26C116.31 225.26 136.15 216.53 140.12 217.32C144.09 218.11 159.96 207 159.96 207C159.96 207 178.21 164.16 176.62 152.26C175.03 140.36 175.83 105.43 152.02 103.85Z" fill="#3F3D56"/>
<path d="M315.5 231.61L279.79 257.01L302.01 259.39L332.96 233.2L315.5 231.61Z" fill="#3F3D56"/>
<path d="M343.28 269.71C343.28 269.71 352.01 296.71 340.11 304.63C328.21 312.55 308.36 276.85 308.36 276.85C308.36 276.85 286.93 251.46 301.22 245.9C315.51 240.34 321.34 264.55 321.34 264.55L340.08 280.82L343.28 269.71Z" fill="#FBBEBE"/>
<path d="M288.92 155.03C306.45 155.03 320.66 145.968 320.66 134.79C320.66 123.612 306.45 114.55 288.92 114.55C271.39 114.55 257.18 123.612 257.18 134.79C257.18 145.968 271.39 155.03 288.92 155.03Z" fill="#3F3D56"/>
<path d="M294.47 109C307.178 109 317.48 98.6981 317.48 85.99C317.48 73.2819 307.178 62.98 294.47 62.98C281.762 62.98 271.46 73.2819 271.46 85.99C271.46 98.6981 281.762 109 294.47 109Z" fill="#3F3D56"/>
<path d="M209.16 58.21C226.032 58.21 239.71 51.1048 239.71 42.34C239.71 33.5752 226.032 26.47 209.16 26.47C192.288 26.47 178.61 33.5752 178.61 42.34C178.61 51.1048 192.288 58.21 209.16 58.21Z" fill="#3F3D56"/>
<path d="M180.59 71.7C186.505 71.7 191.3 59.7952 191.3 45.11C191.3 30.4247 186.505 18.52 180.59 18.52C174.675 18.52 169.88 30.4247 169.88 45.11C169.88 59.7952 174.675 71.7 180.59 71.7Z" fill="#3F3D56"/>
<path d="M21.17 672.8C24.17 667.29 20.77 660.54 16.89 655.62C13.01 650.7 8.27001 645.62 8.37001 639.33C8.52001 630.33 18.07 625.02 25.7 620.25C31.3631 616.71 36.5862 612.511 41.26 607.74C43.2213 605.908 44.84 603.741 46.04 601.34C47.62 597.82 47.58 593.82 47.48 589.96C47.1467 577.12 46.51 564.293 45.57 551.48" stroke="#3F3D56" stroke-width="4" stroke-miterlimit="10"/>
<path d="M60.08 550.77C59.9737 548.419 59.2766 546.133 58.0531 544.123C56.8296 542.113 55.1192 540.444 53.08 539.27L49.94 545.49L50.04 537.97C47.1937 537.134 44.1555 537.224 41.3634 538.226C38.5714 539.228 36.17 541.092 34.5056 543.547C32.8411 546.003 31.9997 548.924 32.1027 551.889C32.2057 554.853 33.2478 557.709 35.0787 560.043C36.9095 562.377 39.4345 564.069 42.2893 564.875C45.1442 565.682 48.1814 565.56 50.9627 564.529C53.7441 563.497 56.1259 561.609 57.7646 559.136C59.4032 556.663 60.214 553.733 60.08 550.77Z" fill="#57B894"/>
<path d="M35.08 645.77C33.6078 648.623 31.1997 650.884 28.2591 652.173C25.3185 653.462 22.0242 653.701 18.9283 652.85C15.8323 651.999 13.1229 650.11 11.2542 647.499C9.38538 644.889 8.47078 641.715 8.66364 638.51C8.85651 635.305 10.1451 632.264 12.3135 629.896C14.4819 627.528 17.3982 625.977 20.5739 625.504C23.7495 625.03 26.9913 625.663 29.7561 627.295C32.5209 628.928 34.6406 631.461 35.76 634.47L26.99 641.6L36.64 639.36C36.6423 641.591 36.1072 643.79 35.08 645.77Z" fill="#57B894"/>
<path d="M28.08 618.52C26.2378 618.61 24.3959 618.335 22.6603 617.711C20.9246 617.087 19.3294 616.126 17.9662 614.884C16.603 613.642 15.4987 612.142 14.7168 610.472C13.9349 608.801 13.4908 606.993 13.41 605.15C13.2993 602.954 13.7141 600.763 14.62 598.76C15.4603 596.884 16.7016 595.215 18.2566 593.871C19.8116 592.527 21.6424 591.54 23.62 590.98L23.55 596.77L26.72 590.48C28.5622 590.39 30.4041 590.665 32.1397 591.289C33.8754 591.913 35.4706 592.874 36.8338 594.116C38.197 595.358 39.3013 596.858 40.0832 598.528C40.8651 600.199 41.3092 602.007 41.39 603.85C41.4721 605.47 41.269 607.091 40.79 608.64C39.9455 611.395 38.2717 613.821 35.9971 615.59C33.7225 617.358 30.9577 618.381 28.08 618.52Z" fill="#57B894"/>
<path d="M62.19 595.85C60.0357 595.929 57.8922 595.51 55.9265 594.624C53.9609 593.739 52.2263 592.412 50.8579 590.746C49.4895 589.08 48.5243 587.121 48.0374 585.021C47.5506 582.921 47.5554 580.737 48.0513 578.639C48.5472 576.541 49.521 574.586 50.8966 572.926C52.2722 571.266 54.0126 569.946 55.982 569.07C57.9515 568.193 60.0968 567.783 62.2508 567.871C64.4048 567.96 66.5092 568.545 68.4 569.58L65.92 576.38L71.02 571.48C73.0818 573.345 74.5415 575.783 75.2128 578.481C75.8842 581.179 75.7368 584.016 74.7896 586.631C73.8424 589.245 72.1382 591.518 69.8943 593.16C67.6503 594.802 64.9683 595.738 62.19 595.85Z" fill="#57B894"/>
<path opacity="0.1" d="M58.19 554.51C54.96 554.87 51.8 555.88 48.55 556.08C45.3 556.28 41.73 555.5 39.68 552.97C38.57 551.61 38.01 549.89 37.08 548.41C36.193 547.028 34.981 545.885 33.55 545.08C32.6958 546.851 32.2241 548.781 32.1655 550.746C32.107 552.711 32.463 554.667 33.2103 556.485C33.9576 558.304 35.0795 559.944 36.503 561.3C37.9264 562.656 39.6195 563.697 41.472 564.355C43.3244 565.013 45.2948 565.274 47.2547 565.12C49.2146 564.966 51.1201 564.402 52.8472 563.462C54.5743 562.523 56.0842 561.231 57.2787 559.67C58.4732 558.108 59.3255 556.313 59.78 554.4C59.25 554.42 58.72 554.46 58.19 554.51Z" fill="black"/>
<path opacity="0.1" d="M62.19 595.85C59.7752 595.955 57.3741 595.436 55.2184 594.343C53.0627 593.25 51.2252 591.62 49.8832 589.609C48.5413 587.599 47.7404 585.277 47.5576 582.866C47.3749 580.456 47.8166 578.04 48.84 575.85C49.9593 576.599 50.9208 577.561 51.67 578.68C52.67 580.19 53.27 581.93 54.45 583.32C56.63 585.89 60.37 586.73 63.75 586.57C67.13 586.41 70.41 585.46 73.75 585.15C74.22 585.15 74.7 585.07 75.17 585.06C74.4748 588.026 72.8314 590.684 70.4889 592.631C68.1465 594.578 65.2328 595.708 62.19 595.85Z" fill="black"/>
<path opacity="0.1" d="M28.08 618.52C26.2378 618.61 24.3959 618.335 22.6603 617.711C20.9246 617.087 19.3294 616.126 17.9662 614.884C16.603 613.642 15.4987 612.142 14.7168 610.472C13.9349 608.801 13.4908 606.993 13.41 605.15C13.2993 602.954 13.7141 600.763 14.62 598.76C15.7866 599.518 16.8036 600.484 17.62 601.61C18.71 603.15 19.39 604.92 20.62 606.34C22.99 608.98 26.97 609.91 30.56 609.82C34.15 609.73 37.38 608.89 40.83 608.63C39.9849 611.393 38.3059 613.826 36.0232 615.597C33.7405 617.367 30.9659 618.388 28.08 618.52Z" fill="black"/>
<path opacity="0.1" d="M35.08 645.77C34.3282 647.45 33.2529 648.965 31.9156 650.229C30.5782 651.493 29.005 652.481 27.2857 653.137C25.5665 653.793 23.7348 654.104 21.8953 654.052C20.0559 654 18.2446 653.587 16.565 652.835C14.8854 652.083 13.3703 651.008 12.1063 649.671C10.8422 648.333 9.85397 646.76 9.19793 645.041C8.54188 643.321 8.2309 641.49 8.28274 639.65C8.33457 637.811 8.7482 636 9.50002 634.32C10.6541 635.079 11.6916 636.002 12.58 637.06C13.91 638.69 14.79 640.53 16.33 642.06C19.2 644.88 23.83 646.06 27.96 646.15C30.3387 646.16 32.7159 646.033 35.08 645.77Z" fill="black"/>
<path d="M1.52588e-05 666.46C1.52588e-05 666.46 11.08 666.12 14.42 663.74C17.76 661.36 31.42 658.52 32.29 662.34C33.16 666.16 48.93 681.34 36.43 681.4C23.93 681.46 7.36999 679.45 4.03999 677.4C0.709993 675.35 1.52588e-05 666.46 1.52588e-05 666.46Z" fill="#656380"/>
<path opacity="0.2" d="M36.65 680.07C24.14 680.17 7.58999 678.12 4.25999 676.07C1.71999 674.53 0.71001 668.98 0.37001 666.42H1.52588e-05C1.52588e-05 666.42 0.700015 675.35 4.00002 677.42C7.30002 679.49 23.88 681.5 36.39 681.42C40 681.42 41.24 680.11 41.18 678.2C40.71 679.33 39.34 680.05 36.65 680.07Z" fill="black"/>
</g>
<defs>
<clipPath id="clip0">
<rect width="532.15" height="688.51" fill="white"/>
</clipPath>
</defs>
</svg>
